<svg xmlns="http://www.w3.org/2000/svg" xmlns:xlink="http://www.w3.org/1999/xlink" width="74" height="74" viewBox="0 0 74 74">
  <defs>
    <clipPath id="clip-path">
      <rect id="Rectangle_20" data-name="Rectangle 20" width="74" height="74" fill="#fff" stroke="#707070" stroke-width="1"/>
    </clipPath>
  </defs>
  <g id="Mask_Group_4" data-name="Mask Group 4" clip-path="url(#clip-path)">
    <g id="Layer_2" data-name="Layer 2" transform="translate(0 0.909)">
      <g id="Layer_1" data-name="Layer 1" transform="translate(0 0)">
        <path id="Path_4" data-name="Path 4" d="M36.831,0A36.838,36.838,0,0,0,25.186,71.791c1.83.342,2.513-.8,2.513-1.775,0-.878-.031-3.776-.049-6.856C17.4,65.386,15.243,58.816,15.243,58.816c-1.678-4.27-4.093-5.392-4.093-5.392-3.343-2.288.25-2.239.25-2.239,3.7.262,5.649,3.794,5.649,3.794,3.288,5.63,8.619,4.008,10.718,3.05a7.861,7.861,0,0,1,2.342-4.923c-8.156-.921-16.787-4.081-16.787-18.2a14.244,14.244,0,0,1,3.8-9.9,13.242,13.242,0,0,1,.354-9.76s3.093-.988,10.132,3.776a34.99,34.99,0,0,1,18.453,0c7-4.74,10.12-3.776,10.12-3.776a13.267,13.267,0,0,1,.36,9.76A14.237,14.237,0,0,1,60.328,34.9c0,14.152-8.613,17.263-16.818,18.178,1.318,1.141,2.495,3.386,2.495,6.82,0,4.929-.037,8.9-.037,10.108,0,.982.659,2.129,2.525,1.769A36.838,36.838,0,0,0,36.831,0Z" transform="translate(0.022 0)" fill="#fff" fill-rule="evenodd"/>
        <path id="Path_5" data-name="Path 5" d="M19.648,75.824a.446.446,0,0,1-.61.116c-.244-.122-.421-.372-.335-.555a.45.45,0,0,1,.61-.116c.238.122.421.372.329.555Z" transform="translate(-5.682 -22.937)" fill="#fff"/>
        <path id="Path_6" data-name="Path 6" d="M21.8,78.045c-.177.165-.519.085-.756-.171a.561.561,0,0,1-.1-.763c.183-.165.512-.085.756.171S21.983,77.892,21.8,78.045Z" transform="translate(-6.339 -23.492)" fill="#fff"/>
        <path id="Path_7" data-name="Path 7" d="M23.878,80.994c-.226.159-.61,0-.824-.317s-.226-.72,0-.878.61,0,.824.311S24.1,80.836,23.878,80.994Z" transform="translate(-6.966 -24.319)" fill="#fff"/>
        <path id="Path_8" data-name="Path 8" d="M26.643,83.952a.689.689,0,0,1-.97-.165c-.323-.3-.415-.72-.207-.939s.61-.165.952.14.415.72.2.939Z" transform="translate(-7.718 -25.228)" fill="#fff"/>
        <path id="Path_9" data-name="Path 9" d="M30.445,85.854c-.092.287-.5.421-.921.3s-.689-.464-.61-.756.5-.427.921-.3S30.524,85.561,30.445,85.854Z" transform="translate(-8.799 -25.939)" fill="#fff"/>
        <path id="Path_10" data-name="Path 10" d="M34.765,86.287c0,.305-.342.555-.781.561s-.793-.232-.8-.537.342-.555.787-.561S34.765,85.988,34.765,86.287Z" transform="translate(-10.106 -26.153)" fill="#fff"/>
        <path id="Path_11" data-name="Path 11" d="M38.808,85.654c.055.3-.25.61-.683.683s-.824-.1-.878-.4.256-.61.683-.683S38.753,85.356,38.808,85.654Z" transform="translate(-11.342 -25.996)" fill="#fff"/>
      </g>
    </g>
  </g>
</svg>
