<svg xmlns="http://www.w3.org/2000/svg" viewBox="0 0 159.4 173.84"><defs><style>.cls-1{fill:#f6b217;}</style></defs><title>logo6</title><g id="Layer_2" data-name="Layer 2"><g id="Object"><path class="cls-1" d="M24.67,170.55a.44.44,0,0,1,.31.14l.8.88a6.56,6.56,0,0,1-2.25,1.67,7.73,7.73,0,0,1-3.19.6,7.49,7.49,0,0,1-3-.56,6.49,6.49,0,0,1-2.26-1.58,7.18,7.18,0,0,1-1.46-2.44,9.22,9.22,0,0,1-.51-3.13,8.59,8.59,0,0,1,.55-3.14,7.32,7.32,0,0,1,1.55-2.44,7.09,7.09,0,0,1,2.4-1.59,8.29,8.29,0,0,1,3.09-.56,7.33,7.33,0,0,1,2.87.51,7.55,7.55,0,0,1,2.15,1.41l-.67.94a.69.69,0,0,1-.17.17.41.41,0,0,1-.27.07.59.59,0,0,1-.29-.1l-.36-.25-.5-.32a5.29,5.29,0,0,0-.67-.31,6.25,6.25,0,0,0-.91-.25,6.08,6.08,0,0,0-1.19-.1,5.7,5.7,0,0,0-2.22.42,5,5,0,0,0-1.74,1.18,5.52,5.52,0,0,0-1.13,1.88,7.17,7.17,0,0,0-.41,2.48,7.32,7.32,0,0,0,.41,2.52,5.59,5.59,0,0,0,1.11,1.87,4.5,4.5,0,0,0,1.66,1.16,5.25,5.25,0,0,0,2.06.4,7.57,7.57,0,0,0,1.22-.08,4.39,4.39,0,0,0,1.85-.67,6.11,6.11,0,0,0,.79-.62A.58.58,0,0,1,24.67,170.55Z"/><path class="cls-1" d="M47.77,166.13a8.64,8.64,0,0,1-.54,3.11,6.79,6.79,0,0,1-3.87,4,8.53,8.53,0,0,1-6.08,0,6.88,6.88,0,0,1-2.35-1.59,7.15,7.15,0,0,1-1.52-2.44,9.25,9.25,0,0,1,0-6.23,7.4,7.4,0,0,1,1.52-2.45A6.88,6.88,0,0,1,37.28,159a8.39,8.39,0,0,1,6.08,0,6.92,6.92,0,0,1,2.36,1.59A7.21,7.21,0,0,1,47.23,163,8.7,8.7,0,0,1,47.77,166.13Zm-2.1,0a7.5,7.5,0,0,0-.38-2.5,5.27,5.27,0,0,0-1.07-1.87,4.69,4.69,0,0,0-1.69-1.18,6.16,6.16,0,0,0-4.42,0,4.69,4.69,0,0,0-1.69,1.18,5.14,5.14,0,0,0-1.08,1.87,8.38,8.38,0,0,0,0,5,5.22,5.22,0,0,0,1.08,1.87,4.67,4.67,0,0,0,1.69,1.17,6.31,6.31,0,0,0,4.42,0,4.67,4.67,0,0,0,1.69-1.17,5.36,5.36,0,0,0,1.07-1.87A7.44,7.44,0,0,0,45.67,166.13Z"/><path class="cls-1" d="M63.53,168.75l.21.56c.08-.2.15-.38.23-.56a5.4,5.4,0,0,1,.26-.55l5.11-9.29c.1-.16.19-.26.29-.29a1.2,1.2,0,0,1,.42-.05h1.51v15.11H69.77V162.57c0-.14,0-.3,0-.47a4.67,4.67,0,0,1,0-.52L64.63,171a.81.81,0,0,1-.74.47H63.6a.8.8,0,0,1-.74-.47l-5.29-9.48c0,.18,0,.36,0,.54s0,.34,0,.48v11.11H55.84V158.57h1.51a1.2,1.2,0,0,1,.42.05.6.6,0,0,1,.28.29l5.22,9.3A3.36,3.36,0,0,1,63.53,168.75Z"/><path class="cls-1" d="M82.76,168v5.66h-2V158.57h4.46a8.35,8.35,0,0,1,2.49.33,4.69,4.69,0,0,1,1.76.94,3.87,3.87,0,0,1,1,1.48,5.14,5.14,0,0,1,.34,1.93,4.88,4.88,0,0,1-.37,1.93,4.12,4.12,0,0,1-1.08,1.51,4.87,4.87,0,0,1-1.77,1,7.41,7.41,0,0,1-2.41.35Zm0-1.62h2.42a4.91,4.91,0,0,0,1.55-.23,3.24,3.24,0,0,0,1.12-.65,2.66,2.66,0,0,0,.68-1,3.27,3.27,0,0,0,.24-1.27,2.89,2.89,0,0,0-.9-2.26,3.88,3.88,0,0,0-2.69-.81H82.76Z"/><path class="cls-1" d="M109.64,173.68h-1.58a.68.68,0,0,1-.44-.14.92.92,0,0,1-.26-.35L106,169.54H99.17l-1.41,3.65a.81.81,0,0,1-.25.34.68.68,0,0,1-.45.15H95.48l6-15.11h2.08Zm-9.9-5.61h5.64L103,161.92a11,11,0,0,1-.45-1.42l-.23.79c-.07.24-.15.46-.22.64Z"/><path class="cls-1" d="M118.28,158.64a.88.88,0,0,1,.3.27l8.75,11.39c0-.18,0-.36,0-.53s0-.34,0-.5v-10.7h1.79v15.11h-1a.86.86,0,0,1-.41-.09,1.12,1.12,0,0,1-.32-.28l-8.74-11.38a4.67,4.67,0,0,1,0,.52c0,.17,0,.32,0,.46v10.77h-1.79V158.57h1.06A.84.84,0,0,1,118.28,158.64Z"/><path class="cls-1" d="M143.86,167.67v6h-2v-6l-5.53-9.1h1.79a.65.65,0,0,1,.43.13,1.27,1.27,0,0,1,.27.34l3.46,5.87c.14.25.26.48.36.7s.18.43.25.64l.26-.65a5.48,5.48,0,0,1,.34-.69L146.9,159a1.52,1.52,0,0,1,.26-.32.61.61,0,0,1,.43-.15h1.81Z"/><path class="cls-1" d="M62.54,133.21c.87.11,1.75.2,2.64.28a75.19,75.19,0,0,0,44.47-70.21L94.78,48.41A86.34,86.34,0,0,1,62.54,133.21Z"/><path class="cls-1" d="M57.23,132.52l.4.08A83.47,83.47,0,0,0,90.11,44.72L68.93,23.54A102.48,102.48,0,0,1,57.23,132.52Z"/><path class="cls-1" d="M129.06,80.74a77.31,77.31,0,0,1-24.92,41.76A78.55,78.55,0,0,1,92.3,131a69.74,69.74,0,0,0,45.35-41.68Z"/><path class="cls-1" d="M125.69,78.35,113.46,66.12a78.08,78.08,0,0,1-41.41,67.63h.06a69.48,69.48,0,0,0,8.21-.49A75.29,75.29,0,0,0,125.69,78.35Z"/><path class="cls-1" d="M59,14.61,44.41,0A69.44,69.44,0,0,0,0,64.57H0a69.44,69.44,0,0,0,52.61,67.15A99.16,99.16,0,0,0,59,14.61Z"/><path class="cls-1" d="M159.4,76.1A69.38,69.38,0,0,0,90.22,6.92h0a68.47,68.47,0,0,0-24.77,4.61l89.33,89.33A68.43,68.43,0,0,0,159.4,76.1Z"/></g></g></svg>