<svg xmlns="http://www.w3.org/2000/svg" viewBox="0 0 189.76 188.67"><defs><style>.cls-1{fill:#ce5959;}</style></defs><title>logo10</title><g id="Layer_2" data-name="Layer 2"><g id="Object"><path class="cls-1" d="M0,188.67V172.31H6a11.38,11.38,0,0,1,2.88.31,5.59,5.59,0,0,1,1.95.89,3.34,3.34,0,0,1,1.09,1.39,4.7,4.7,0,0,1,.34,1.83,3.72,3.72,0,0,1-.15,1.06,3.15,3.15,0,0,1-.5,1,3.76,3.76,0,0,1-.86.82,5.78,5.78,0,0,1-1.27.63,4.48,4.48,0,0,1,2.39,1.28,3.27,3.27,0,0,1,.78,2.26,4.69,4.69,0,0,1-.41,1.94,4.49,4.49,0,0,1-1.18,1.57,5.65,5.65,0,0,1-1.93,1,8.34,8.34,0,0,1-2.61.38Zm3.79-9.48h2a6.59,6.59,0,0,0,1.14-.09,2.31,2.31,0,0,0,.85-.31,1.42,1.42,0,0,0,.54-.62,2.21,2.21,0,0,0,.19-1,2.71,2.71,0,0,0-.15-1,1.24,1.24,0,0,0-.45-.62,1.88,1.88,0,0,0-.77-.34,5,5,0,0,0-1.1-.1H3.79Zm0,2.54v4.07H6.47a3.31,3.31,0,0,0,1.23-.19,1.92,1.92,0,0,0,.74-.49,1.55,1.55,0,0,0,.37-.69,2.87,2.87,0,0,0,.11-.77,2.55,2.55,0,0,0-.12-.81,1.41,1.41,0,0,0-.41-.61,2,2,0,0,0-.76-.38,4.37,4.37,0,0,0-1.18-.13Z"/><path class="cls-1" d="M23,182.62v6h-3.8V172.31h5.32a11,11,0,0,1,3,.36,5.57,5.57,0,0,1,2,1,3.84,3.84,0,0,1,1.16,1.54,5.48,5.48,0,0,1,.14,3.43,4.53,4.53,0,0,1-.63,1.31,4.79,4.79,0,0,1-1,1.07,5,5,0,0,1-1.41.78,3.43,3.43,0,0,1,.72.47,3,3,0,0,1,.58.68l3.48,5.7H29.17A1.46,1.46,0,0,1,27.8,188l-2.72-4.75a1.15,1.15,0,0,0-.42-.45,1.39,1.39,0,0,0-.68-.13ZM23,180h1.52a3.9,3.9,0,0,0,1.32-.2,2.43,2.43,0,0,0,.9-.54,2,2,0,0,0,.5-.82,3,3,0,0,0,.16-1,2.12,2.12,0,0,0-.7-1.69,3.3,3.3,0,0,0-2.18-.6H23Z"/><path class="cls-1" d="M53.87,188.67H50.93a1.36,1.36,0,0,1-.81-.23,1.24,1.24,0,0,1-.45-.59l-1-2.85H42.49l-1,2.85a1.16,1.16,0,0,1-.44.56,1.23,1.23,0,0,1-.79.26h-3l6.34-16.36h3.88Zm-10.51-6.26h4.47l-1.5-4.48c-.1-.28-.21-.62-.34-1s-.27-.81-.39-1.25c-.12.45-.25.88-.37,1.26s-.25.73-.36,1Z"/><path class="cls-1" d="M62.1,172.33a.94.94,0,0,1,.31.08,1,1,0,0,1,.26.18,2.92,2.92,0,0,1,.28.3l7.77,9.83c0-.32-.06-.62-.07-.92s0-.57,0-.84v-8.65H74v16.36H72a1.86,1.86,0,0,1-.75-.14,1.6,1.6,0,0,1-.58-.49L63,178.29c0,.29,0,.57,0,.84s0,.53,0,.77v8.77H59.69V172.31h2A2.49,2.49,0,0,1,62.1,172.33Z"/><path class="cls-1" d="M96,180.48a8.54,8.54,0,0,1-.61,3.27,7.72,7.72,0,0,1-1.72,2.6,7.82,7.82,0,0,1-2.68,1.7,9.45,9.45,0,0,1-3.48.62H81.16V172.31h6.35a9.45,9.45,0,0,1,3.48.61,8.31,8.31,0,0,1,2.68,1.71,7.67,7.67,0,0,1,1.72,2.59A8.52,8.52,0,0,1,96,180.48Zm-3.88,0a7.1,7.1,0,0,0-.32-2.19,4.68,4.68,0,0,0-.9-1.65,3.94,3.94,0,0,0-1.44-1,5,5,0,0,0-1.95-.36H85v10.52h2.53a4.81,4.81,0,0,0,1.95-.37,4,4,0,0,0,1.44-1,4.73,4.73,0,0,0,.9-1.66A7.12,7.12,0,0,0,92.12,180.48Z"/><path class="cls-1" d="M113.55,172.33a1,1,0,0,1,.3.08.87.87,0,0,1,.26.18,2.11,2.11,0,0,1,.28.3l7.77,9.83c0-.32,0-.62-.06-.92s0-.57,0-.84v-8.65h3.35v16.36h-2a1.81,1.81,0,0,1-.74-.14,1.52,1.52,0,0,1-.58-.49l-7.72-9.75q0,.44.06.84c0,.27,0,.53,0,.77v8.77h-3.34V172.31h2A2.49,2.49,0,0,1,113.55,172.33Z"/><path class="cls-1" d="M147.83,188.67h-2.94a1.36,1.36,0,0,1-.81-.23,1.18,1.18,0,0,1-.45-.59l-1-2.85h-6.22l-1,2.85a1.16,1.16,0,0,1-.44.56,1.23,1.23,0,0,1-.79.26h-3l6.33-16.36h3.89Zm-10.51-6.26h4.47l-1.5-4.48-.35-1c-.13-.39-.26-.81-.38-1.25-.12.45-.25.88-.37,1.26s-.25.73-.36,1Z"/><path class="cls-1" d="M162.44,182.08c.14.3.28.62.4.94.13-.33.26-.65.41-1s.29-.61.43-.91l4.2-8.27a2,2,0,0,1,.23-.33.8.8,0,0,1,.27-.18,1.14,1.14,0,0,1,.33-.05H172v16.35h-3.35v-9.41c0-.46,0-.95.07-1.48l-4.33,8.41a1.43,1.43,0,0,1-.55.59,1.56,1.56,0,0,1-.78.2h-.52a1.56,1.56,0,0,1-.78-.2,1.41,1.41,0,0,1-.54-.59l-4.36-8.43c0,.27.06.53.07.78s0,.5,0,.72v9.41h-3.34V172.32H157a1.14,1.14,0,0,1,.33.05.87.87,0,0,1,.26.18,1.27,1.27,0,0,1,.23.33l4.21,8.31C162.16,181.47,162.31,181.77,162.44,182.08Z"/><path class="cls-1" d="M189.76,172.31v2.92H183V179h5.15v2.81H183v3.9h6.72v2.92H179.22V172.31Z"/><path class="cls-1" d="M156.94,46.48,94.52,154.58,32.11,46.48H156.94m3.1-6.13H29a4.33,4.33,0,0,0-3.75,6.5L90.77,160.32a4.33,4.33,0,0,0,7.51,0L163.79,46.85a4.33,4.33,0,0,0-3.75-6.5Z"/><path class="cls-1" d="M94.52,0l-73,126.47h146ZM76.75,48.81,80.88,56l-20,34.62-4.13-7.15ZM63.84,95.69l20-34.63,32.91,57h-40Z"/></g></g></svg>