<svg xmlns="http://www.w3.org/2000/svg" viewBox="0 0 194.57 143.73"><defs><style>.cls-1{fill:#403449;}</style></defs><title>logo11</title><g id="Layer_2" data-name="Layer 2"><g id="Object"><path class="cls-1" d="M55.23,117.79h7.12c3.19,0,5.56.48,7.1,1.46a5.09,5.09,0,0,1,2.31,4.65,7.26,7.26,0,0,1-.06.93,6.18,6.18,0,0,1-.31,1.19,4.88,4.88,0,0,1-.66,1.31,5.42,5.42,0,0,1-1.23,1.2,6.81,6.81,0,0,1-1.91.94,6.08,6.08,0,0,1,3.8,2.12,6.24,6.24,0,0,1,1.29,4,6.45,6.45,0,0,1-2.21,5.23q-2.2,1.84-6.57,1.84H55.23Zm2.91,10.68h5.32a7,7,0,0,0,3.93-.91,3.63,3.63,0,0,0,1.33-3.22,3.36,3.36,0,0,0-1.59-3.22,10.52,10.52,0,0,0-4.93-.88H58.14Zm0,2.33v9.44h5.19a7.91,7.91,0,0,0,4.73-1.17,4.23,4.23,0,0,0,1.58-3.63,3.84,3.84,0,0,0-1.71-3.6,10.5,10.5,0,0,0-5.31-1Z"/><path class="cls-1" d="M102.14,142.62H98.79l-3.43-7.79c-.93-2.09-1.52-3.35-1.78-3.78q-1.23.09-2.91.09L86.23,131v11.62h-3V117.5h8c.91,0,1.73,0,2.43.07a18.66,18.66,0,0,1,2.11.24,8.85,8.85,0,0,1,1.82.49,6.58,6.58,0,0,1,1.44.81,4.08,4.08,0,0,1,1.09,1.18,5.85,5.85,0,0,1,.64,1.64,8.7,8.7,0,0,1,.24,2.14,6.67,6.67,0,0,1-1.24,4.05,6.36,6.36,0,0,1-3.5,2.35s.12.22.34.6l.8,1.4c.3.56.54,1,.71,1.39ZM86.23,120.1v8.4l2.84,0,3.33,0c2.14,0,3.63-.36,4.47-1.07a4.19,4.19,0,0,0,1.26-3.38,3.66,3.66,0,0,0-1.21-3,6.36,6.36,0,0,0-4-1Z"/><path class="cls-1" d="M129,142.62l-2.9-7.87h-9.91l-3,7.87h-3l9.54-24.88h3L132,142.62Zm-3.84-10.31q-3.54-10.29-3.92-11.57l-4.08,11.57Z"/><path class="cls-1" d="M161.43,142.62h-3.29l-12.9-19.54-.84-1.16q.14,3.52.13,6.3v14.4h-2.72V117.79h3.24L158,137.33l.86,1.16q-.12-5.36-.12-6.19V117.79h2.71Z"/><path class="cls-1" d="M194.57,130.18q0,6.06-3.44,9.25t-9.61,3.19h-7.37V117.79H181a19.35,19.35,0,0,1,5.56.73,12,12,0,0,1,4.26,2.21,9.61,9.61,0,0,1,2.76,3.88A14.9,14.9,0,0,1,194.57,130.18Zm-3.11.08q0-5.2-2.68-7.57c-1.8-1.58-4.4-2.37-7.83-2.37h-3.9v19.77h4.39c3.27,0,5.75-.83,7.46-2.48S191.46,133.51,191.46,130.26Z"/><polygon class="cls-1" points="83.38 23.49 98.81 23.49 98.81 0 0 0 0 98.81 98.81 98.81 98.81 66.8 83.38 66.8 83.38 23.49"/><rect class="cls-1" x="107.76" y="23.49" width="27.89" height="43.31"/><path class="cls-1" d="M0,109v34.76H34.76V109Zm26,25.95H8.81L26,117.78Z"/></g></g></svg>