<svg xmlns="http://www.w3.org/2000/svg" viewBox="0 0 173.15 177.07"><defs><style>.cls-1{fill:#f6b217;}</style></defs><title>logo3</title><g id="Layer_2" data-name="Layer 2"><g id="Object"><path class="cls-1" d="M126.67,0H42.22L0,73.13l42.22,73.14h84.45l42.22-73.14Zm-3.73,138.7-.32.55H46.27L8.1,73.13,46.27,7h.64l8.65,15L64.78,6H66l-9.83,17,4.64,8L75.27,6h1.62L61.62,32.49,66,40,85.56,6H88L67.17,42.1l3.92,6.8L95.84,6h3.24L72.71,51.71l3.58,6.19L106.23,6h4l-32,55.37,3.12,5.4L116.52,6h4.86L83.86,71l3,5.21,37.58-65.11,3.24,5.61L90.1,81.83Z"/><path class="cls-1" d="M12,171.31a3.43,3.43,0,0,1,.65,2.12,3.11,3.11,0,0,1-1.34,2.69,6.71,6.71,0,0,1-3.92.95H.72V163.65H7a6.14,6.14,0,0,1,3.66.93A3,3,0,0,1,12,167.14a3.33,3.33,0,0,1-.46,1.76,3.1,3.1,0,0,1-1.27,1.19A3.63,3.63,0,0,1,12,171.31Zm-8.79-5.7v3.7H6.74a3.64,3.64,0,0,0,2-.47,1.71,1.71,0,0,0,0-2.76,3.56,3.56,0,0,0-2-.47Zm6.93,7.57c0-1.29-1-1.94-2.9-1.94h-4v3.88h4C9.17,175.12,10.14,174.47,10.14,173.18Z"/><path class="cls-1" d="M27.93,177.07l-2.74-3.93-.52,0h-3v3.91H19.15V163.65h5.52a7.3,7.3,0,0,1,3,.58,4.45,4.45,0,0,1,2,1.64,4.63,4.63,0,0,1,.69,2.55,4.55,4.55,0,0,1-.74,2.61,4.33,4.33,0,0,1-2.12,1.63l3.09,4.41ZM27,166.45a3.83,3.83,0,0,0-2.47-.69H21.64v5.35h2.92a3.77,3.77,0,0,0,2.47-.7,2.45,2.45,0,0,0,.84-2A2.41,2.41,0,0,0,27,166.45Z"/><path class="cls-1" d="M45.71,174H39l-1.33,3.1H35.1l6-13.42H43.6l6.06,13.42H47.05Zm-.83-2-2.53-5.87L39.84,172Z"/><path class="cls-1" d="M67.13,163.65v13.42h-2L57.67,168v9.09H55.2V163.65h2l7.4,9.09v-9.09Z"/><path class="cls-1" d="M74.57,163.65h5.87a8.47,8.47,0,0,1,3.81.83,6.24,6.24,0,0,1,2.59,2.36,7.19,7.19,0,0,1,0,7,6.17,6.17,0,0,1-2.59,2.36,8.34,8.34,0,0,1-3.81.83H74.57ZM80.32,175a5.66,5.66,0,0,0,2.6-.56,4.15,4.15,0,0,0,1.73-1.61,4.81,4.81,0,0,0,.6-2.43,4.75,4.75,0,0,0-.6-2.42,4,4,0,0,0-1.73-1.61,5.66,5.66,0,0,0-2.6-.57H77.06V175Z"/><path class="cls-1" d="M115.3,163.65v13.42h-2L105.84,168v9.09h-2.47V163.65h2l7.4,9.09v-9.09Z"/><path class="cls-1" d="M131.44,174h-6.71l-1.32,3.1h-2.57l6-13.42h2.46l6,13.42h-2.6Zm-.82-2-2.53-5.87L125.58,172Z"/><path class="cls-1" d="M153.27,177.07l0-8.89-4.41,7.36h-1.12l-4.41-7.25v8.78h-2.37V163.65H143l5.33,8.9,5.23-8.9h2.06v13.42Z"/><path class="cls-1" d="M173.15,175v2.09H163.09V163.65h9.79v2.09h-7.3v3.49h6.48v2.05h-6.48V175Z"/></g></g></svg>