<svg xmlns="http://www.w3.org/2000/svg" viewBox="0 0 189.32 150.21"><defs><style>.cls-1{fill:#403449;}</style></defs><title>logo4</title><g id="Layer_2" data-name="Layer 2"><g id="Object"><path class="cls-1" d="M14.4,125.53a5,5,0,0,1,1.11,3.23,5.11,5.11,0,0,1-1.72,4.08,7.46,7.46,0,0,1-5,1.49H0V113.86H8.61a7.35,7.35,0,0,1,4.77,1.36,4.68,4.68,0,0,1,1.67,3.83,4.74,4.74,0,0,1-1,3.13,4.67,4.67,0,0,1-2.62,1.6A5,5,0,0,1,14.4,125.53ZM4.09,122.44H7.77a3.49,3.49,0,0,0,2.34-.68,2.43,2.43,0,0,0,.79-2,2.51,2.51,0,0,0-.78-2,3.56,3.56,0,0,0-2.41-.69H4.09Zm6.38,7.85a2.54,2.54,0,0,0,.87-2.08,2.58,2.58,0,0,0-.89-2.1,3.8,3.8,0,0,0-2.5-.74H4.09V131H8A3.88,3.88,0,0,0,10.47,130.29Z"/><path class="cls-1" d="M32,134.33l-4.79-8h-1.8v8H21.29V113.86h7.8a7.69,7.69,0,0,1,5.43,1.74,6.53,6.53,0,0,1,.58,8.47,6.33,6.33,0,0,1-3.72,2.08l5.1,8.18Zm-6.59-10.79h3.37q3.51,0,3.51-3.1a3.05,3.05,0,0,0-.86-2.3,3.65,3.65,0,0,0-2.65-.83H25.37Z"/><path class="cls-1" d="M54.52,130.21H46.31l-1.45,4.12H40.54l7.54-20.24h4.67l7.51,20.24H55.94Zm-1.1-3.1-3-8.64-3,8.64Z"/><path class="cls-1" d="M82.71,134.33H78.62l-9.17-13.92v13.92H65.37V113.86h4.08l9.17,14v-14h4.09Z"/><path class="cls-1" d="M106.05,129.43a8.83,8.83,0,0,1-3.7,3.61,12.05,12.05,0,0,1-5.75,1.29H89.32V113.86H96.6a12.29,12.29,0,0,1,5.75,1.26,8.68,8.68,0,0,1,3.7,3.57,11.9,11.9,0,0,1,0,10.74Zm-4.68-.49a7.5,7.5,0,0,0,0-9.77,7.11,7.11,0,0,0-5.12-1.74H93.41v13.25h2.84A7.11,7.11,0,0,0,101.37,128.94Z"/><path class="cls-1" d="M57.08,0s52.79,19.93,51.67,48.77h0V97.55S56,77.61,57.1,48.77h0Z"/><path class="cls-1" d="M155.78,86.13a72.33,72.33,0,0,1,33.54-12.36V58.5a68.82,68.82,0,0,0-33.54,27.63Z"/><path class="cls-1" d="M149.79,90.73A71.72,71.72,0,0,1,189.32,55.3v-44s-75.18,28.39-73.59,69.46h0v69.45s3.35-1.27,8.62-3.65c0-2.22,0-4.46.24-6.71A72.15,72.15,0,0,1,149.79,90.73Z"/><path class="cls-1" d="M142.64,116.53a71.66,71.66,0,0,1,2.63-14.22,67.1,67.1,0,0,0-15.72,37.95c-.11,1.32-.17,2.64-.2,4,4.27-2.05,9.24-4.61,14.46-7.62A71.87,71.87,0,0,1,142.64,116.53Z"/><path class="cls-1" d="M145.63,116.78a68.7,68.7,0,0,0,.93,18.21c20.54-12.29,43.62-31.28,42.73-54.23h0v-2a67.41,67.41,0,0,0-39.08,18.26A68.46,68.46,0,0,0,145.63,116.78Z"/></g></g></svg>