<svg xmlns="http://www.w3.org/2000/svg" xmlns:xlink="http://www.w3.org/1999/xlink" viewBox="0 0 50.37 13.72"><defs><style>.cls-1{fill:none;stroke:#dcdcaa;stroke-miterlimit:10;stroke-width:0.75px;}.cls-2{font-size:6.36px;fill:#5cbcaa;font-family:ProximaNova-Light, Proxima Nova;font-weight:300;letter-spacing:0.02em;}.cls-3{fill:#569cd5;}</style><symbol id="Certinax_logo1" data-name="Certinax_logo1" viewBox="0 0 50.38 13.72"><rect class="cls-1" x="0.37" y="0.38" width="25.17" height="12.97" rx="2"/><text class="cls-2" transform="translate(26.7 8.73)">Certinax</text><path class="cls-3" d="M16.34,2.61H8.72a.56.56,0,0,0-.56.56V10.8a.56.56,0,0,0,.56.55h7.62a.56.56,0,0,0,.56-.55V3.17A.56.56,0,0,0,16.34,2.61ZM10.83,5.36h-.27a.32.32,0,0,0-.29.36v1a.37.37,0,0,1-.2.38.38.38,0,0,1,.2.39v1a.32.32,0,0,0,.29.35h.27V9h-.27a.52.52,0,0,1-.49-.54v-1c0-.16-.07-.31-.23-.31V7c.16,0,.23-.15.23-.31v-1a.52.52,0,0,1,.49-.54h.27Zm.63,2.82a.19.19,0,1,1,0-.38.19.19,0,0,1,0,.38Zm1,0a.19.19,0,1,1,0-.38.19.19,0,1,1,0,.38Zm1,0a.19.19,0,0,1,0-.38.19.19,0,1,1,0,.38Zm1.62-1c-.15,0-.23.15-.23.31v1a.51.51,0,0,1-.49.54h-.27V8.78h.27a.32.32,0,0,0,.29-.35v-1a.37.37,0,0,1,.21-.39.37.37,0,0,1-.21-.38v-1a.32.32,0,0,0-.29-.36h-.27V5.18h.27a.51.51,0,0,1,.49.54v1c0,.16.08.31.23.31Z"/></symbol></defs><title>certinax-logo1</title><g id="Layer_2" data-name="Layer 2"><g id="Layer_1-2" data-name="Layer 1"><use width="50.37" height="13.72" xlink:href="#Certinax_logo1"/></g></g></svg>